<?xml version="1.0" standalone="no"?>
<!DOCTYPE svg PUBLIC "-//W3C//DTD SVG 20010904//EN"
 "http://www.w3.org/TR/2001/REC-SVG-20010904/DTD/svg10.dtd">
<svg version="1.0" xmlns="http://www.w3.org/2000/svg"
 width="600.000000pt" height="600.000000pt" viewBox="0 0 600.000000 600.000000"
 preserveAspectRatio="xMidYMid meet">

<g transform="translate(0.000000,600.000000) scale(0.100000,-0.100000)"
fill="#000000" stroke="none">
<path d="M1886 5368 c-13 -19 -16 -58 -16 -225 l0 -203 -158 0 c-141 0 -161
-2 -175 -18 -15 -16 -17 -45 -17 -200 l0 -182 -158 0 c-141 0 -161 -2 -175
-18 -16 -17 -17 -160 -17 -1856 0 -1247 3 -1844 10 -1857 11 -19 37 -19 1414
-19 1153 0 1406 2 1415 13 6 9 12 83 13 198 l3 184 159 3 c97 1 165 7 173 13
10 9 13 60 13 225 l0 214 164 0 c125 0 166 3 175 13 16 20 16 3704 0 3723 -10
12 -240 14 -1410 14 l-1398 0 -15 -22z m2744 -1853 l0 -1785 -130 0 -130 0 0
1593 c0 1489 -1 1593 -17 1605 -13 9 -269 12 -1200 12 l-1183 0 0 180 0 180
1330 0 1330 0 0 -1785z m-350 -455 l0 -1780 -130 0 -130 0 0 1620 c0 1591 0
1619 -19 1630 -13 7 -406 10 -1200 10 l-1181 0 0 150 0 150 1330 0 1330 0 0
-1780z m-350 -400 l0 -1780 -1330 0 -1330 0 0 1780 0 1780 1330 0 1330 0 0
-1780z"/>
<path d="M1630 3890 l0 -30 970 0 970 0 0 30 0 30 -970 0 -970 0 0 -30z"/>
<path d="M1630 3390 l0 -30 970 0 970 0 0 30 0 30 -970 0 -970 0 0 -30z"/>
<path d="M1630 2885 l0 -35 968 2 967 3 3 33 3 32 -970 0 -971 0 0 -35z"/>
<path d="M1630 2385 l0 -35 970 0 970 0 0 35 0 35 -970 0 -970 0 0 -35z"/>
<path d="M1630 1885 l0 -35 970 0 970 0 0 35 0 35 -970 0 -970 0 0 -35z"/>
<path d="M1630 1385 l0 -35 971 0 970 0 -3 33 -3 32 -967 3 -968 2 0 -35z"/>
</g>
</svg>
